<?xml version="1.0" encoding="UTF-8"?>
<!-- Generator: Adobe Illustrator 23.0.4, SVG Export Plug-In . SVG Version: 6.00 Build 0)  -->
<svg version="1.1" id="Layer_1" inkscape:version="0.91 r13725" sodipodi:docname="logo-right-es.svg" xmlns:cc="http://creativecommons.org/ns#" xmlns:dc="http://purl.org/dc/elements/1.1/" xmlns:inkscape="http://www.inkscape.org/namespaces/inkscape" xmlns:rdf="http://www.w3.org/1999/02/22-rdf-syntax-ns#" xmlns:sodipodi="http://sodipodi.sourceforge.net/DTD/sodipodi-0.dtd" xmlns:svg="http://www.w3.org/2000/svg" xmlns="http://www.w3.org/2000/svg" xmlns:xlink="http://www.w3.org/1999/xlink" x="0px" y="0px" viewBox="0 0 146 40.3" style="enable-background:new 0 0 146 40.3;" xml:space="preserve">
<style type="text/css">
	.st0{fill:#FFFFFF;}
	.st1{clip-path:url(#SVGID_2_);}
	.st2{clip-path:url(#SVGID_4_);fill:#FD772C;}
	.st3{clip-path:url(#SVGID_6_);}
	.st4{clip-path:url(#SVGID_8_);fill:#FD772C;}
	.st5{clip-path:url(#SVGID_10_);}
	.st6{clip-path:url(#SVGID_12_);fill:none;}
	.st7{fill:none;}
</style>
<sodipodi:namedview bordercolor="#666666" borderopacity="1" fit-margin-bottom="0" fit-margin-left="0" fit-margin-right="0" fit-margin-top="0" gridtolerance="10" guidetolerance="10" id="namedview166" inkscape:current-layer="Layer_1" inkscape:cx="75" inkscape:cy="20.157499" inkscape:pageopacity="0" inkscape:pageshadow="2" inkscape:window-height="1056" inkscape:window-maximized="1" inkscape:window-width="1855" inkscape:window-x="65" inkscape:window-y="24" inkscape:zoom="11.26" objecttolerance="10" pagecolor="#ffffff" showgrid="false">
	</sodipodi:namedview>
<g id="g3421" transform="translate(-3.3747784,0.88810097)">
	<g id="g3" transform="matrix(0.26958298,0,0,0.26958298,1.8755532,-2.1064943)">
		<path id="path5" inkscape:connector-curvature="0" class="st0" d="M218.8,92.9v39h-11.5v-39h-4.9V82.2h4.9V64h11.5v18.2h8.9v10.7    L218.8,92.9L218.8,92.9z"/>
	</g>
	<g id="g7" transform="matrix(0.26958298,0,0,0.26958298,1.8755532,-2.1064943)">
		<path id="path9" inkscape:connector-curvature="0" class="st0" d="M244,61.6c0-2,0.7-3.7,2.2-5.2c1.5-1.5,3.2-2.2,5.3-2.2    c2.1,0,3.8,0.7,5.3,2.2c1.5,1.4,2.2,3.2,2.2,5.3s-0.7,3.8-2.2,5.3c-1.4,1.5-3.2,2.2-5.3,2.2c-2.1,0-3.8-0.7-5.3-2.2    C244.8,65.5,244.1,63.7,244,61.6z M257.3,82.2v49.7h-11.5V82.2H257.3z"/>
		<path id="path11" inkscape:connector-curvature="0" class="st0" d="M318.2,84.4v15.3c-2.6-3.2-5-5.4-7-6.6c-2-1.2-4.4-1.8-7.2-1.8    c-4.3,0-7.9,1.5-10.8,4.5s-4.3,6.8-4.3,11.4c0,4.7,1.4,8.5,4.1,11.5c2.8,3,6.3,4.5,10.7,4.5c2.8,0,5.2-0.6,7.3-1.8    c2-1.2,4.4-3.4,7.2-6.7v15.2c-4.7,2.4-9.3,3.6-14,3.6c-7.7,0-14.1-2.5-19.3-7.5c-5.2-5-7.8-11.2-7.8-18.6c0-7.4,2.6-13.7,7.9-18.8    c5.2-5.1,11.7-7.7,19.3-7.7C309.2,80.9,313.9,82,318.2,84.4z"/>
	</g>
	<g id="g13" transform="matrix(0.26958298,0,0,0.26958298,1.8755532,-2.1064943)">
		<path id="path15" inkscape:connector-curvature="0" class="st0" d="M343.2,138.9c0,9.3-3.7,14-11.2,14c-1.9,0-3.7-0.2-5.3-0.5V147    c1.2,0.4,2.4,0.6,3.7,0.6c2.8,0,4.7-0.9,5.7-2.8c0.7-1.3,1-3.5,1-6.7V82.4h6.1C343.2,82.4,343.2,138.9,343.2,138.9z M343.2,69.1    h-6.1V61h6.1V69.1z"/>
		<path id="path17" inkscape:connector-curvature="0" class="st0" d="M408.5,107.2c0,7.3-1.9,13.3-5.6,18c-4.2,5.3-10,7.9-17.6,7.9    c-7.6,0-13.4-2.6-17.6-7.9c-3.7-4.7-5.6-10.7-5.6-18c0-7.3,1.9-13.4,5.6-18c4.2-5.3,10-7.9,17.6-7.9c7.6,0,13.5,2.6,17.6,7.9    C406.6,93.8,408.5,99.8,408.5,107.2z M401.7,107.2c0-6-1.4-10.9-4.2-14.7c-3-4-7.1-6-12.3-6c-5.2,0-9.2,2-12.2,6    c-2.8,3.8-4.2,8.7-4.2,14.7c0,6,1.4,10.9,4.2,14.6c3,4.1,7.1,6.1,12.2,6.1c5.2,0,9.3-2,12.3-6.1    C400.4,118,401.7,113.1,401.7,107.2z"/>
		<path id="path19" inkscape:connector-curvature="0" class="st0" d="M468.8,107.2c0,7.7-1.7,13.8-5.1,18.5c-3.6,5-8.7,7.5-15.3,7.5    c-7.1,0-12.4-3-15.6-9.1v7.9h-6.1V59h6.1l0,31.7c0.7-2,2.2-3.9,4.4-5.7c3.1-2.6,6.8-3.8,11.1-3.8c7,0,12.3,2.4,15.7,7.3    C467.2,92.9,468.8,99.2,468.8,107.2z M462.1,107.2c0-5.8-1-10.4-2.9-14c-2.5-4.5-6.4-6.7-11.7-6.7c-5.1,0-8.9,2.3-11.5,6.9    c-2.1,3.7-3.1,8.3-3.1,13.8c0,5.3,1.1,9.9,3.2,13.7c2.7,4.7,6.5,7,11.4,7c5.3,0,9.2-2.2,11.7-6.7    C461.2,117.6,462.1,112.9,462.1,107.2z"/>
	</g>
	<g id="g21" transform="matrix(0.26958298,0,0,0.26958298,1.8755532,-2.1064943)">
		<path id="path23" inkscape:connector-curvature="0" class="st0" d="M477.4,129.1c0-0.9,0.3-1.8,1-2.4c0.7-0.7,1.5-1,2.5-1    s1.8,0.3,2.5,1s1,1.5,1,2.5c0,1-0.3,1.8-1,2.5c-0.7,0.7-1.5,1-2.5,1c-1,0-1.8-0.3-2.5-1C477.8,130.9,477.4,130.1,477.4,129.1z"/>
		<path id="path25" inkscape:connector-curvature="0" class="st0" d="M518.6,121h-17.6c0.2,2,0.8,3.6,2,4.8c1.2,1.2,2.6,1.8,4.5,1.8    c1.4,0,2.6-0.3,3.5-1c0.9-0.7,1.9-1.9,3.1-3.7l4.8,2.7c-0.7,1.3-1.5,2.3-2.3,3.2c-0.8,0.9-1.7,1.6-2.6,2.2c-0.9,0.6-2,1-3,1.3    c-1.1,0.3-2.3,0.4-3.5,0.4c-3.7,0-6.6-1.2-8.8-3.5c-2.2-2.4-3.3-5.5-3.3-9.4c0-3.9,1.1-7,3.2-9.4c2.2-2.4,5-3.5,8.6-3.5    c3.6,0,6.5,1.1,8.6,3.4c2.1,2.3,3.1,5.4,3.1,9.5C518.6,119.7,518.6,121,518.6,121z M512.8,116.4c-0.8-3-2.7-4.5-5.7-4.5    c-0.7,0-1.3,0.1-1.9,0.3c-0.6,0.2-1.2,0.5-1.6,0.9c-0.5,0.4-0.9,0.9-1.3,1.4c-0.4,0.6-0.6,1.2-0.8,1.9H512.8z"/>
		<path id="path27" inkscape:connector-curvature="0" class="st0" d="M542.8,111.6l-4.7,2.5c-0.7-1.5-1.7-2.2-2.7-2.2    c-0.5,0-1,0.2-1.3,0.5c-0.4,0.3-0.6,0.8-0.6,1.3c0,0.9,1.1,1.9,3.3,2.8c3,1.3,5,2.5,6.1,3.6c1,1.1,1.6,2.6,1.6,4.4    c0,2.4-0.9,4.3-2.6,5.9c-1.7,1.5-3.7,2.3-6.1,2.3c-4.1,0-7-2-8.7-6l4.8-2.2c0.7,1.2,1.2,1.9,1.5,2.2c0.7,0.6,1.5,1,2.5,1    c1.9,0,2.9-0.9,2.9-2.6c0-1-0.7-1.9-2.2-2.8c-0.6-0.3-1.1-0.6-1.7-0.8c-0.6-0.3-1.1-0.5-1.7-0.8c-1.6-0.8-2.8-1.6-3.5-2.4    c-0.9-1-1.3-2.3-1.3-3.9c0-2.1,0.7-3.9,2.2-5.3c1.5-1.4,3.3-2.1,5.4-2.1C539,106.7,541.3,108.3,542.8,111.6L542.8,111.6z"/>
	</g>
	<g id="g29" transform="matrix(0.26958298,0,0,0.26958298,1.8755532,-2.1064943)">
		<g>
			<defs>
				<path id="SVGID_1_" d="M110.8,94.7c-12.7,30.6-30.1,52.5-38.8,48.9c-8.8-3.6-5.6-31.4,7.1-62c12.7-30.6,30.1-52.5,38.8-48.9      C126.7,36.3,123.5,64.1,110.8,94.7z"/>
			</defs>
			<use xlink:href="#SVGID_1_" style="overflow:visible;fill:#FD772C;"/>
			<clipPath id="SVGID_2_">
				<use xlink:href="#SVGID_1_" style="overflow:visible;"/>
			</clipPath>
			<g id="g37" class="st1">
				<g id="g39">
					<g>
						<defs>
							
								<rect id="SVGID_3_" x="76.7" y="74.4" transform="matrix(0.3827 -0.9239 0.9239 0.3827 -23.2593 142.0221)" width="36" height="28"/>
						</defs>
						<use xlink:href="#SVGID_3_" style="overflow:visible;fill:#FD772C;"/>
						<clipPath id="SVGID_4_">
							<use xlink:href="#SVGID_3_" style="overflow:visible;"/>
						</clipPath>
						<polygon id="polygon68" class="st2" points="72.2,6.9 168.1,46.6 117.1,169.9 21.2,130.2       "/>
					</g>
				</g>
			</g>
		</g>
	</g>
	<g id="g70" transform="matrix(0.26958298,0,0,0.26958298,1.8755532,-2.1064943)">
		<g>
			<defs>
				<path id="SVGID_5_" d="M147.6,99c-8.5,20.5-20.1,35.1-26,32.7c-5.9-2.4-3.7-21,4.8-41.5c8.5-20.5,20.1-35.1,26-32.7      C158.2,59.9,156.1,78.5,147.6,99z"/>
			</defs>
			<use xlink:href="#SVGID_5_" style="overflow:visible;fill:#FD772C;"/>
			<clipPath id="SVGID_6_">
				<use xlink:href="#SVGID_5_" style="overflow:visible;"/>
			</clipPath>
			<g id="g78" class="st3">
				<g id="g80">
					<g>
						<defs>
							
								<rect id="SVGID_7_" x="125" y="85" transform="matrix(0.3827 -0.9239 0.9239 0.3827 -2.5605 184.7992)" width="24.1" height="18.7"/>
						</defs>
						<use xlink:href="#SVGID_7_" style="overflow:visible;fill:#FD772C;"/>
						<clipPath id="SVGID_8_">
							<use xlink:href="#SVGID_7_" style="overflow:visible;"/>
						</clipPath>
						<polygon id="polygon109" class="st4" points="122,39.8 186.1,66.4 152,148.8 87.9,122.2       "/>
					</g>
				</g>
			</g>
		</g>
	</g>
	<g id="g111" transform="matrix(0.26958298,0,0,0.26958298,1.8755532,-2.1064943)">
		<g>
			<defs>
				<path id="SVGID_9_" d="M64.6,88.2c-17,41-40.2,70.3-52,65.4c-11.7-4.9-7.5-42,9.5-83c17-41,40.3-70.3,52-65.4      C85.8,10,81.6,47.2,64.6,88.2z"/>
			</defs>
			<use xlink:href="#SVGID_9_" style="overflow:visible;fill:#FD772C;"/>
			<clipPath id="SVGID_10_">
				<use xlink:href="#SVGID_9_" style="overflow:visible;"/>
			</clipPath>
			<g id="g119" class="st5">
				<g id="g121">
					<g>
						<defs>
							
								<rect id="SVGID_11_" x="19.2" y="60.4" transform="matrix(0.3827 -0.9239 0.9239 0.3827 -46.4136 88.8059)" width="48.1" height="37.5"/>
						</defs>
						<clipPath id="SVGID_12_">
							<use xlink:href="#SVGID_11_" style="overflow:visible;"/>
						</clipPath>
						<polygon id="polygon150" class="st6" points="13.2,-29.9 141.6,23.3 73.3,188.2 -55.1,135       "/>
					</g>
				</g>
			</g>
		</g>
	</g>
</g>
<rect id="rect152" y="-141.3" class="st7" width="150" height="181.6"/>
<g id="g154" transform="translate(-8.8146973e-6,-118.68502)">
</g>
<g id="g156" transform="translate(-8.8146973e-6,-118.68502)">
</g>
<g id="g158" transform="translate(-8.8146973e-6,-118.68502)">
</g>
<g id="g160" transform="translate(-8.8146973e-6,-118.68502)">
</g>
<g id="g162" transform="translate(-8.8146973e-6,-118.68502)">
</g>
<g id="g164" transform="translate(-8.8146973e-6,-118.68502)">
</g>
</svg>